<?xml version="1.0" encoding="UTF-8"?>
<!DOCTYPE svg PUBLIC "-//W3C//DTD SVG 1.1//EN" "http://www.w3.org/Graphics/SVG/1.1/DTD/svg11.dtd">
<!-- Creator: CorelDRAW -->
<svg xmlns="http://www.w3.org/2000/svg" xml:space="preserve" width="26.67mm" height="26.67mm" version="1.1" style="shape-rendering:geometricPrecision; text-rendering:geometricPrecision; image-rendering:optimizeQuality; fill-rule:evenodd; clip-rule:evenodd"
viewBox="0 0 2658.57 2658.57"
 xmlns:xlink="http://www.w3.org/1999/xlink"
 xmlns:xodm="http://www.corel.com/coreldraw/odm/2003">
 <defs>
  <style type="text/css">
   <![CDATA[
    .fil0 {fill:#2B2A29}
    .fil1 {fill:#2B2A29;fill-rule:nonzero}
   ]]>
  </style>
 </defs>
 <g id="Layer_x0020_1">
  <metadata id="CorelCorpID_0Corel-Layer"/>
  <path class="fil0" d="M1002.05 41.24c711.37,-180.73 1434.56,249.47 1615.29,960.82 180.72,711.37 -249.48,1434.55 -960.83,1615.27 -711.37,180.73 -1434.54,-249.46 -1615.27,-960.81 -180.73,-711.37 249.46,-1434.56 960.81,-1615.28zm22.6 0.01c662.28,-180.72 1335.52,249.47 1503.76,960.81 168.26,711.36 -232.23,1434.53 -894.5,1615.26 -662.28,180.72 -1335.51,-249.46 -1503.75,-960.81 -168.26,-711.35 232.22,-1434.53 894.49,-1615.26z"/>
  <path class="fil0" d="M192.34 1008.72c177.04,-627.92 829.61,-993.44 1457.53,-816.4 627.92,177.05 993.42,829.62 816.38,1457.53 -177.05,627.93 -829.6,993.43 -1457.52,816.39 -627.92,-177.04 -993.44,-829.6 -816.39,-1457.52zm10.05 -17.38c155.23,-590.13 785.6,-917.2 1407.95,-730.56 622.38,186.64 1001.07,816.34 845.86,1406.46 -155.24,590.13 -785.59,917.2 -1407.95,730.55 -622.37,-186.63 -1001.07,-816.32 -845.86,-1406.45z"/>
  <path class="fil0" d="M800.82 2217.71c-490.66,-291.86 -651.82,-926.24 -359.97,-1416.91 291.87,-490.66 926.25,-651.81 1416.91,-359.95 490.66,291.86 651.81,926.23 359.96,1416.89 -291.86,490.67 -926.24,651.83 -1416.9,359.97zm-12.42 -12.43c-463.66,-264.87 -597.36,-871.77 -298.63,-1355.57 298.72,-483.8 916.75,-661.28 1380.41,-396.42 463.66,264.87 597.36,871.76 298.62,1355.56 -298.71,483.8 -916.74,661.28 -1380.4,396.43z"/>
  <g id="_1250586172720">
   <path class="fil1" d="M1415.55 1618.38c22.68,-13.32 39.64,-26.8 51.07,-40.59 11.57,-13.96 17.28,-27.59 17.28,-41.23 0,-11.57 -3.32,-20.77 -9.99,-27.75 -6.66,-6.98 -15.22,-10.47 -25.84,-10.47 -14.27,0 -25.85,5.71 -34.57,16.97 -8.88,11.42 -13.32,26.33 -13.32,44.88 0,10.95 1.27,21.25 3.96,31.08 2.7,9.67 6.51,18.87 11.41,27.11zm232.15 -86.73l8.4 3.33c-26.01,49.47 -55.03,86.42 -86.89,111 -31.88,24.58 -67.08,36.94 -105.46,36.94 -31.23,0 -56.45,-8.72 -75.63,-26 -19.19,-17.29 -28.86,-40.12 -28.86,-68.34 0,-28.07 10.3,-52.17 30.91,-71.99 20.47,-19.83 45.36,-29.66 74.53,-29.66 14.12,0 25.85,3.81 35.04,11.57 9.04,7.78 13.64,17.6 13.64,29.34 0,14.9 -7.61,30.28 -22.99,46.3 -15.22,15.86 -38.7,32.83 -70.25,50.74 9.99,13.64 21.24,24.1 33.93,31.24 12.68,7.14 26.17,10.63 40.43,10.63 26.33,0 52.64,-11.57 78.97,-34.89 26.33,-23.15 51.06,-56.61 74.21,-100.21zm126.54 18.07c0,-17.44 -3.81,-30.92 -11.57,-40.27 -7.78,-9.36 -19.19,-13.96 -34.09,-13.96 -17.6,0 -32.67,8.4 -45.2,25.37 -12.37,16.81 -18.55,38.06 -18.55,63.91 0,21.24 4.75,38.37 14.42,51.22 9.68,12.84 22.21,19.34 37.74,19.34 10.79,0 21.41,-3.48 31.72,-10.62 10.15,-7.14 18.71,-16.81 25.53,-29.18l0 -65.81zm60.89 -76.11l0 7.77c-5.7,4.45 -9.67,9.99 -11.89,16.97 -2.22,6.98 -3.33,18.71 -3.33,35.21l0 88.48c0,16.33 1.11,27.43 3.49,33.29 2.38,5.71 6.5,8.56 12.37,8.56 18.23,0 39.96,-12.2 65.01,-36.46 25.05,-24.26 48.21,-56.13 69.13,-95.78l7.93 3.17c-23.47,43.92 -50.9,79.6 -82.3,107.03 -31.4,27.44 -59.15,41.07 -83.25,41.07 -11.42,0 -20.47,-4.6 -27.12,-13.79 -6.66,-9.04 -10.31,-21.89 -10.94,-38.38 -12.05,17.44 -25.53,30.44 -40.28,39.17 -14.74,8.72 -30.44,13 -47.25,13 -20.14,0 -36.47,-6.98 -48.99,-20.92 -12.37,-13.96 -18.55,-32.36 -18.55,-55.18 0,-31.08 11.41,-58.67 34.4,-83.25 23,-24.42 48.53,-36.63 76.91,-36.63 8.25,0 16.97,1.43 25.69,4.13 8.88,2.85 18.08,7.13 27.75,12.84l51.22 -30.28zm134.94 -35.21l-49.47 21.89 0 -9.83 49.47 -21.89 0 -120.51 70.41 -19.03 0 5.55c-9.51,5.54 -15.86,10.94 -19.03,16.17 -3.17,5.39 -4.75,13.16 -4.75,23.63l0 74.21 63.75 -28.22 0 10.15 -63.75 26.95 0 207.4c0,16.5 1.9,27.43 5.55,32.83 3.8,5.39 10.31,8.08 19.5,8.08 19.83,0 42.65,-12.2 68.66,-36.62 26.01,-24.42 49.79,-56.93 71.04,-97.52l8.4 3.33c-24.74,46.62 -52.8,82.94 -84.04,108.93 -31.4,26.01 -62.64,39.01 -93.87,39.01 -15.54,0 -26.33,-3.33 -32.51,-10.15 -6.19,-6.82 -9.36,-21.24 -9.36,-43.13l0 -191.23z"/>
   <path class="fil1" d="M685.16 1682.92l-216.45 -685 175.97 0 128.24 448.97 118.14 -448.97 174.66 0 113.72 448.97 129.79 -445.21 3.29 -12.8 0 -0.02c1.36,-7.54 7.92,-13.23 15.84,-13.23 8.88,0 16.08,7.19 16.08,16.08 0,2.25 -0.46,4.39 -1.3,6.33l-30.36 92.56 -7.47 22.8c-0.4,1.21 -0.49,2.43 -0.34,3.64 -4.54,22.48 4.89,45.24 23.37,57.74 -0.14,1.35 -0.32,2.77 -0.57,4.28 -11.52,74.01 -95.89,294.26 -131.73,375.88 -33.63,76.53 -32.82,78.74 -4.36,88.35 28.63,9.11 30.61,7.81 48.84,-73.78 19.45,-86.98 81.9,-314.41 116.42,-380.89 0.79,-1.51 1.58,-2.9 2.33,-4.22 21.35,0.22 41.6,-11.67 51.36,-31.09 1.51,-0.98 2.72,-2.46 3.32,-4.3l7.48 -22.79 40.66 -124.02 2.55 -9.9 0 -0.02c1.05,-5.85 6.15,-10.27 12.3,-10.27 6.89,0 12.48,5.58 12.48,12.48 0,1.19 -0.17,2.34 -0.48,3.43l-0.02 0.05 -0.16 0.53 -0.1 0.29 -219.69 684.13 -173.78 0 -117.68 -440.6 -116.15 440.6 -176.19 0zm684.38 -696.01c4.65,0 8.41,3.77 8.41,8.41 0,0.91 -0.14,1.78 -0.41,2.6l-0.03 0.1 -0.07 0.19 -33.62 102.55 -0.29 -0.08c-1.98,2.98 -5.79,4.42 -9.36,3.27 -3.57,-1.19 -5.77,-4.62 -5.61,-8.18l-0.26 -0.1 0.66 -2.03 30.74 -93.73 1.56 -6.07 0 -0.01c0.71,-3.94 4.15,-6.92 8.28,-6.92zm34.39 0.07c4.65,0 8.41,3.77 8.41,8.41 0,1.2 -0.25,2.33 -0.7,3.36l-36.14 110.15 -0.66 2.04 -0.29 -0.08c-1.96,2.98 -5.79,4.44 -9.35,3.26 -3.56,-1.16 -5.78,-4.61 -5.61,-8.17l-0.28 -0.09 0.69 -2.03 34.23 -104.44 1.41 -5.48 0 -0.01c0.71,-3.94 4.15,-6.92 8.28,-6.92zm34.22 0.22c4.65,0 8.41,3.77 8.41,8.41 0,0.8 -0.11,1.58 -0.32,2.31l0.04 0 -40.39 123.2 -0.3 -0.08c-1.97,3 -5.78,4.43 -9.34,3.25 -3.56,-1.17 -5.79,-4.59 -5.6,-8.15l-0.28 -0.1 0.66 -2.04 37.11 -113.17 1.72 -6.7 0 -0.01c0.71,-3.94 4.15,-6.92 8.28,-6.92z"/>
  </g>
 </g>
</svg>
